<mxfile host="app.diagrams.net" modified="2024-05-17T08:14:52.145Z" agent="Mozilla/5.0 (Windows NT 10.0; Win64; x64; rv:125.0) Gecko/20100101 Firefox/125.0" etag="VA_1rQQ2361qmBK0nZ5i" version="24.2.2" type="device">
  <diagram name="Page-1" id="LZ7K36N-VkaVWjXydS0J">
    <mxGraphModel dx="1900" dy="1658" grid="1" gridSize="10" guides="1" tooltips="1" connect="1" arrows="1" fold="1" page="1" pageScale="1" pageWidth="850" pageHeight="1100" math="0" shadow="0">
      <root>
        <mxCell id="0" />
        <mxCell id="1" parent="0" />
        <mxCell id="IB6KKEzYAM_JYOzarY0I-3" value="" style="edgeStyle=orthogonalEdgeStyle;rounded=0;orthogonalLoop=1;jettySize=auto;html=1;" edge="1" parent="1" source="IB6KKEzYAM_JYOzarY0I-1" target="IB6KKEzYAM_JYOzarY0I-2">
          <mxGeometry relative="1" as="geometry" />
        </mxCell>
        <mxCell id="IB6KKEzYAM_JYOzarY0I-5" value="" style="edgeStyle=orthogonalEdgeStyle;rounded=0;orthogonalLoop=1;jettySize=auto;html=1;" edge="1" parent="1" source="IB6KKEzYAM_JYOzarY0I-1" target="IB6KKEzYAM_JYOzarY0I-4">
          <mxGeometry relative="1" as="geometry" />
        </mxCell>
        <mxCell id="IB6KKEzYAM_JYOzarY0I-53" value="" style="edgeStyle=none;rounded=0;orthogonalLoop=1;jettySize=auto;html=1;" edge="1" parent="1" source="IB6KKEzYAM_JYOzarY0I-1" target="IB6KKEzYAM_JYOzarY0I-52">
          <mxGeometry relative="1" as="geometry" />
        </mxCell>
        <mxCell id="IB6KKEzYAM_JYOzarY0I-1" value="BODYPANE&lt;br&gt;SPLITPANE" style="rounded=0;whiteSpace=wrap;html=1;" vertex="1" parent="1">
          <mxGeometry x="360" y="270" width="120" height="60" as="geometry" />
        </mxCell>
        <mxCell id="IB6KKEzYAM_JYOzarY0I-28" value="" style="edgeStyle=none;rounded=0;orthogonalLoop=1;jettySize=auto;html=1;" edge="1" parent="1" source="IB6KKEzYAM_JYOzarY0I-54" target="IB6KKEzYAM_JYOzarY0I-27">
          <mxGeometry relative="1" as="geometry" />
        </mxCell>
        <mxCell id="IB6KKEzYAM_JYOzarY0I-30" style="edgeStyle=none;rounded=0;orthogonalLoop=1;jettySize=auto;html=1;" edge="1" parent="1" source="IB6KKEzYAM_JYOzarY0I-54" target="IB6KKEzYAM_JYOzarY0I-29">
          <mxGeometry relative="1" as="geometry" />
        </mxCell>
        <mxCell id="IB6KKEzYAM_JYOzarY0I-33" value="" style="edgeStyle=none;rounded=0;orthogonalLoop=1;jettySize=auto;html=1;" edge="1" parent="1" source="IB6KKEzYAM_JYOzarY0I-2" target="IB6KKEzYAM_JYOzarY0I-32">
          <mxGeometry relative="1" as="geometry" />
        </mxCell>
        <mxCell id="IB6KKEzYAM_JYOzarY0I-35" style="edgeStyle=none;rounded=0;orthogonalLoop=1;jettySize=auto;html=1;" edge="1" parent="1" source="IB6KKEzYAM_JYOzarY0I-2" target="IB6KKEzYAM_JYOzarY0I-34">
          <mxGeometry relative="1" as="geometry" />
        </mxCell>
        <mxCell id="IB6KKEzYAM_JYOzarY0I-37" style="edgeStyle=none;rounded=0;orthogonalLoop=1;jettySize=auto;html=1;" edge="1" parent="1" source="IB6KKEzYAM_JYOzarY0I-54" target="IB6KKEzYAM_JYOzarY0I-36">
          <mxGeometry relative="1" as="geometry" />
        </mxCell>
        <mxCell id="IB6KKEzYAM_JYOzarY0I-55" value="" style="edgeStyle=none;rounded=0;orthogonalLoop=1;jettySize=auto;html=1;" edge="1" parent="1" source="IB6KKEzYAM_JYOzarY0I-2" target="IB6KKEzYAM_JYOzarY0I-54">
          <mxGeometry relative="1" as="geometry" />
        </mxCell>
        <mxCell id="IB6KKEzYAM_JYOzarY0I-2" value="VISUALISATION&lt;br&gt;BORDERPANE&lt;br&gt;CENTER" style="rounded=0;whiteSpace=wrap;html=1;" vertex="1" parent="1">
          <mxGeometry x="360" y="130" width="120" height="60" as="geometry" />
        </mxCell>
        <mxCell id="IB6KKEzYAM_JYOzarY0I-7" value="" style="rounded=0;orthogonalLoop=1;jettySize=auto;html=1;" edge="1" parent="1" source="IB6KKEzYAM_JYOzarY0I-4" target="IB6KKEzYAM_JYOzarY0I-6">
          <mxGeometry relative="1" as="geometry" />
        </mxCell>
        <mxCell id="IB6KKEzYAM_JYOzarY0I-9" value="" style="edgeStyle=none;rounded=0;orthogonalLoop=1;jettySize=auto;html=1;" edge="1" parent="1" source="IB6KKEzYAM_JYOzarY0I-4" target="IB6KKEzYAM_JYOzarY0I-8">
          <mxGeometry relative="1" as="geometry" />
        </mxCell>
        <mxCell id="IB6KKEzYAM_JYOzarY0I-11" value="" style="edgeStyle=none;rounded=0;orthogonalLoop=1;jettySize=auto;html=1;" edge="1" parent="1" source="IB6KKEzYAM_JYOzarY0I-4" target="IB6KKEzYAM_JYOzarY0I-10">
          <mxGeometry relative="1" as="geometry" />
        </mxCell>
        <mxCell id="IB6KKEzYAM_JYOzarY0I-4" value="&lt;div&gt;MENU&lt;br&gt;GRIDPANE&lt;br&gt;&lt;/div&gt;&lt;div&gt;RIGHT&lt;/div&gt;" style="rounded=0;whiteSpace=wrap;html=1;" vertex="1" parent="1">
          <mxGeometry x="560" y="270" width="120" height="60" as="geometry" />
        </mxCell>
        <mxCell id="IB6KKEzYAM_JYOzarY0I-17" value="" style="edgeStyle=none;rounded=0;orthogonalLoop=1;jettySize=auto;html=1;" edge="1" parent="1" source="IB6KKEzYAM_JYOzarY0I-6" target="IB6KKEzYAM_JYOzarY0I-16">
          <mxGeometry relative="1" as="geometry" />
        </mxCell>
        <mxCell id="IB6KKEzYAM_JYOzarY0I-19" style="edgeStyle=none;rounded=0;orthogonalLoop=1;jettySize=auto;html=1;" edge="1" parent="1" source="IB6KKEzYAM_JYOzarY0I-6" target="IB6KKEzYAM_JYOzarY0I-18">
          <mxGeometry relative="1" as="geometry" />
        </mxCell>
        <mxCell id="IB6KKEzYAM_JYOzarY0I-22" value="" style="edgeStyle=none;rounded=0;orthogonalLoop=1;jettySize=auto;html=1;" edge="1" parent="1" source="IB6KKEzYAM_JYOzarY0I-6" target="IB6KKEzYAM_JYOzarY0I-21">
          <mxGeometry relative="1" as="geometry" />
        </mxCell>
        <mxCell id="IB6KKEzYAM_JYOzarY0I-6" value="&lt;div&gt;REGLAGEROBINET&lt;br&gt;GRIDPANE&lt;br&gt;&lt;/div&gt;&lt;div&gt;1st&lt;br&gt;&lt;/div&gt;" style="rounded=0;whiteSpace=wrap;html=1;" vertex="1" parent="1">
          <mxGeometry x="750" y="170" width="120" height="60" as="geometry" />
        </mxCell>
        <mxCell id="IB6KKEzYAM_JYOzarY0I-15" value="" style="edgeStyle=none;rounded=0;orthogonalLoop=1;jettySize=auto;html=1;" edge="1" parent="1" source="IB6KKEzYAM_JYOzarY0I-8" target="IB6KKEzYAM_JYOzarY0I-14">
          <mxGeometry relative="1" as="geometry" />
        </mxCell>
        <mxCell id="IB6KKEzYAM_JYOzarY0I-24" style="edgeStyle=none;rounded=0;orthogonalLoop=1;jettySize=auto;html=1;" edge="1" parent="1" source="IB6KKEzYAM_JYOzarY0I-8" target="IB6KKEzYAM_JYOzarY0I-23">
          <mxGeometry relative="1" as="geometry" />
        </mxCell>
        <mxCell id="IB6KKEzYAM_JYOzarY0I-26" value="" style="edgeStyle=none;rounded=0;orthogonalLoop=1;jettySize=auto;html=1;" edge="1" parent="1" source="IB6KKEzYAM_JYOzarY0I-8" target="IB6KKEzYAM_JYOzarY0I-25">
          <mxGeometry relative="1" as="geometry" />
        </mxCell>
        <mxCell id="IB6KKEzYAM_JYOzarY0I-8" value="&lt;div&gt;REGALGEFUITE&lt;br&gt;GRIDPANE&lt;br&gt;&lt;/div&gt;2nd" style="rounded=0;whiteSpace=wrap;html=1;" vertex="1" parent="1">
          <mxGeometry x="750" y="270" width="120" height="60" as="geometry" />
        </mxCell>
        <mxCell id="IB6KKEzYAM_JYOzarY0I-13" value="" style="edgeStyle=none;rounded=0;orthogonalLoop=1;jettySize=auto;html=1;" edge="1" parent="1" source="IB6KKEzYAM_JYOzarY0I-10" target="IB6KKEzYAM_JYOzarY0I-12">
          <mxGeometry relative="1" as="geometry">
            <mxPoint x="800" y="571" as="sourcePoint" />
            <mxPoint x="800" y="621" as="targetPoint" />
          </mxGeometry>
        </mxCell>
        <mxCell id="IB6KKEzYAM_JYOzarY0I-59" style="edgeStyle=none;rounded=0;orthogonalLoop=1;jettySize=auto;html=1;" edge="1" parent="1" source="IB6KKEzYAM_JYOzarY0I-10" target="IB6KKEzYAM_JYOzarY0I-58">
          <mxGeometry relative="1" as="geometry" />
        </mxCell>
        <mxCell id="IB6KKEzYAM_JYOzarY0I-10" value="&lt;div&gt;REGLAGEAFFICHAGE&lt;br&gt;GRID&lt;br&gt;&lt;/div&gt;&lt;div&gt;3rd&lt;br&gt;&lt;/div&gt;" style="rounded=0;whiteSpace=wrap;html=1;" vertex="1" parent="1">
          <mxGeometry x="750" y="380" width="120" height="60" as="geometry" />
        </mxCell>
        <mxCell id="IB6KKEzYAM_JYOzarY0I-12" value="&lt;div&gt;BTN_CHANGERAFFICHAGE&lt;br&gt;BTN&lt;/div&gt;&lt;div&gt;1st&lt;br&gt;&lt;/div&gt;" style="rounded=0;whiteSpace=wrap;html=1;" vertex="1" parent="1">
          <mxGeometry x="650" y="510" width="120" height="60" as="geometry" />
        </mxCell>
        <mxCell id="IB6KKEzYAM_JYOzarY0I-14" value="&lt;div&gt;BTN_FUITE1&lt;br&gt;BTN&lt;br&gt;&lt;/div&gt;1st" style="rounded=0;whiteSpace=wrap;html=1;" vertex="1" parent="1">
          <mxGeometry x="950" y="180" width="120" height="60" as="geometry" />
        </mxCell>
        <mxCell id="IB6KKEzYAM_JYOzarY0I-16" value="&lt;div&gt;SPN_REGLAGEROBINET1&lt;br&gt;SPINNER&lt;br&gt;&lt;/div&gt;&lt;div&gt;1st&lt;br&gt;&lt;/div&gt;" style="rounded=0;whiteSpace=wrap;html=1;" vertex="1" parent="1">
          <mxGeometry x="600" y="30" width="120" height="60" as="geometry" />
        </mxCell>
        <mxCell id="IB6KKEzYAM_JYOzarY0I-18" value="&lt;div&gt;SPN_REGLAGEROBINET4&lt;br&gt;SPINNER&lt;br&gt;&lt;/div&gt;&lt;div&gt;4th&lt;br&gt;&lt;/div&gt;" style="rounded=0;whiteSpace=wrap;html=1;" vertex="1" parent="1">
          <mxGeometry x="900" y="30" width="120" height="60" as="geometry" />
        </mxCell>
        <mxCell id="IB6KKEzYAM_JYOzarY0I-21" value="..." style="rounded=0;whiteSpace=wrap;html=1;" vertex="1" parent="1">
          <mxGeometry x="750" y="30" width="120" height="60" as="geometry" />
        </mxCell>
        <mxCell id="IB6KKEzYAM_JYOzarY0I-23" value="&lt;div&gt;BTN_FUITE4&lt;br&gt;BTN&lt;br&gt;&lt;/div&gt;4th" style="rounded=0;whiteSpace=wrap;html=1;" vertex="1" parent="1">
          <mxGeometry x="950" y="360" width="120" height="60" as="geometry" />
        </mxCell>
        <mxCell id="IB6KKEzYAM_JYOzarY0I-25" value="..." style="rounded=0;whiteSpace=wrap;html=1;" vertex="1" parent="1">
          <mxGeometry x="950" y="270" width="120" height="60" as="geometry" />
        </mxCell>
        <mxCell id="IB6KKEzYAM_JYOzarY0I-49" style="edgeStyle=none;rounded=0;orthogonalLoop=1;jettySize=auto;html=1;" edge="1" parent="1" source="IB6KKEzYAM_JYOzarY0I-27" target="IB6KKEzYAM_JYOzarY0I-40">
          <mxGeometry relative="1" as="geometry" />
        </mxCell>
        <mxCell id="IB6KKEzYAM_JYOzarY0I-50" style="edgeStyle=none;rounded=0;orthogonalLoop=1;jettySize=auto;html=1;" edge="1" parent="1" source="IB6KKEzYAM_JYOzarY0I-27" target="IB6KKEzYAM_JYOzarY0I-42">
          <mxGeometry relative="1" as="geometry" />
        </mxCell>
        <mxCell id="IB6KKEzYAM_JYOzarY0I-51" style="edgeStyle=none;rounded=0;orthogonalLoop=1;jettySize=auto;html=1;" edge="1" parent="1" source="IB6KKEzYAM_JYOzarY0I-27" target="IB6KKEzYAM_JYOzarY0I-41">
          <mxGeometry relative="1" as="geometry" />
        </mxCell>
        <mxCell id="IB6KKEzYAM_JYOzarY0I-27" value="ROBINET_PANE&lt;br&gt;GRIDPANE&lt;br&gt;TOP" style="rounded=0;whiteSpace=wrap;html=1;" vertex="1" parent="1">
          <mxGeometry x="26" y="-10" width="120" height="60" as="geometry" />
        </mxCell>
        <mxCell id="IB6KKEzYAM_JYOzarY0I-46" style="edgeStyle=none;rounded=0;orthogonalLoop=1;jettySize=auto;html=1;" edge="1" parent="1" source="IB6KKEzYAM_JYOzarY0I-29" target="IB6KKEzYAM_JYOzarY0I-45">
          <mxGeometry relative="1" as="geometry" />
        </mxCell>
        <mxCell id="IB6KKEzYAM_JYOzarY0I-47" style="edgeStyle=none;rounded=0;orthogonalLoop=1;jettySize=auto;html=1;" edge="1" parent="1" source="IB6KKEzYAM_JYOzarY0I-29" target="IB6KKEzYAM_JYOzarY0I-43">
          <mxGeometry relative="1" as="geometry" />
        </mxCell>
        <mxCell id="IB6KKEzYAM_JYOzarY0I-48" style="edgeStyle=none;rounded=0;orthogonalLoop=1;jettySize=auto;html=1;" edge="1" parent="1" source="IB6KKEzYAM_JYOzarY0I-29" target="IB6KKEzYAM_JYOzarY0I-44">
          <mxGeometry relative="1" as="geometry" />
        </mxCell>
        <mxCell id="IB6KKEzYAM_JYOzarY0I-29" value="FUITE_PANE&lt;br&gt;GRIDPANE&lt;br&gt;BOTTOM" style="rounded=0;whiteSpace=wrap;html=1;" vertex="1" parent="1">
          <mxGeometry x="26" y="90" width="120" height="60" as="geometry" />
        </mxCell>
        <mxCell id="IB6KKEzYAM_JYOzarY0I-32" value="PADDER_RIGHT&lt;br&gt;PANE&lt;br&gt;RIGHT" style="rounded=0;whiteSpace=wrap;html=1;" vertex="1" parent="1">
          <mxGeometry x="320" y="-10" width="120" height="60" as="geometry" />
        </mxCell>
        <mxCell id="IB6KKEzYAM_JYOzarY0I-34" value="PADDER_LEFT&lt;br&gt;PANE&lt;br&gt;LEFT" style="rounded=0;whiteSpace=wrap;html=1;" vertex="1" parent="1">
          <mxGeometry x="450" y="-10" width="120" height="60" as="geometry" />
        </mxCell>
        <mxCell id="IB6KKEzYAM_JYOzarY0I-39" value="" style="edgeStyle=none;rounded=0;orthogonalLoop=1;jettySize=auto;html=1;" edge="1" parent="1" source="IB6KKEzYAM_JYOzarY0I-36" target="IB6KKEzYAM_JYOzarY0I-38">
          <mxGeometry relative="1" as="geometry" />
        </mxCell>
        <mxCell id="IB6KKEzYAM_JYOzarY0I-36" value="BAIGNOIRE_PANE&lt;br&gt;&lt;div&gt;BORDERPANE&lt;/div&gt;CENTER" style="rounded=0;whiteSpace=wrap;html=1;" vertex="1" parent="1">
          <mxGeometry x="26" y="190" width="120" height="60" as="geometry" />
        </mxCell>
        <mxCell id="IB6KKEzYAM_JYOzarY0I-38" value="EAU_BAIGNOIRE&lt;br&gt;&lt;div&gt;PANE&lt;/div&gt;&lt;div&gt;BOTTOM&lt;/div&gt;" style="rounded=0;whiteSpace=wrap;html=1;" vertex="1" parent="1">
          <mxGeometry x="26" y="330" width="120" height="60" as="geometry" />
        </mxCell>
        <mxCell id="IB6KKEzYAM_JYOzarY0I-40" value="&lt;div&gt;ROBINET1&lt;br&gt;PANE&lt;br&gt;&lt;/div&gt;&lt;div&gt;1st&lt;br&gt;&lt;/div&gt;" style="rounded=0;whiteSpace=wrap;html=1;" vertex="1" parent="1">
          <mxGeometry x="-124" y="-160" width="120" height="60" as="geometry" />
        </mxCell>
        <mxCell id="IB6KKEzYAM_JYOzarY0I-41" value="&lt;div&gt;ROBINET4&lt;br&gt;PANE&lt;/div&gt;&lt;div&gt;4th&lt;br&gt;&lt;/div&gt;" style="rounded=0;whiteSpace=wrap;html=1;" vertex="1" parent="1">
          <mxGeometry x="176" y="-160" width="120" height="60" as="geometry" />
        </mxCell>
        <mxCell id="IB6KKEzYAM_JYOzarY0I-42" value="..." style="rounded=0;whiteSpace=wrap;html=1;" vertex="1" parent="1">
          <mxGeometry x="26" y="-160" width="120" height="60" as="geometry" />
        </mxCell>
        <mxCell id="IB6KKEzYAM_JYOzarY0I-43" value="&lt;div&gt;FUITE1&lt;br&gt;PANE&lt;/div&gt;1st" style="rounded=0;whiteSpace=wrap;html=1;" vertex="1" parent="1">
          <mxGeometry x="-214" width="120" height="60" as="geometry" />
        </mxCell>
        <mxCell id="IB6KKEzYAM_JYOzarY0I-44" value="&lt;div&gt;FUITE4&lt;br&gt;PANE&lt;br&gt;&lt;/div&gt;4th" style="rounded=0;whiteSpace=wrap;html=1;" vertex="1" parent="1">
          <mxGeometry x="-214" y="180" width="120" height="60" as="geometry" />
        </mxCell>
        <mxCell id="IB6KKEzYAM_JYOzarY0I-45" value="..." style="rounded=0;whiteSpace=wrap;html=1;" vertex="1" parent="1">
          <mxGeometry x="-214" y="90" width="120" height="60" as="geometry" />
        </mxCell>
        <mxCell id="IB6KKEzYAM_JYOzarY0I-52" value="LINECHART&lt;br&gt;LINECHART" style="rounded=0;whiteSpace=wrap;html=1;" vertex="1" parent="1">
          <mxGeometry x="360" y="410" width="120" height="60" as="geometry" />
        </mxCell>
        <mxCell id="IB6KKEzYAM_JYOzarY0I-54" value="WATERWORKS&lt;br&gt;BORDERPANE&lt;br&gt;CENTER" style="rounded=0;whiteSpace=wrap;html=1;" vertex="1" parent="1">
          <mxGeometry x="209" y="130" width="120" height="60" as="geometry" />
        </mxCell>
        <mxCell id="IB6KKEzYAM_JYOzarY0I-58" value="&lt;div&gt;BTN_DEMARRERARRETER&lt;br&gt;BTN&lt;/div&gt;&lt;div&gt;2nd&lt;br&gt;&lt;/div&gt;" style="rounded=0;whiteSpace=wrap;html=1;" vertex="1" parent="1">
          <mxGeometry x="850" y="510" width="120" height="60" as="geometry" />
        </mxCell>
      </root>
    </mxGraphModel>
  </diagram>
</mxfile>
